<?xml version="1.0" encoding="UTF-8" standalone="no"?>
<!-- Created with Inkscape (http://www.inkscape.org/) -->

<svg
   width="210mm"
   height="297mm"
   viewBox="0 0 210 297"
   version="1.1"
   id="svg1"
   inkscape:version="1.3.2 (091e20ef0f, 2023-11-25, custom)"
   sodipodi:docname="qa.svg"
   inkscape:export-filename="qa.png"
   inkscape:export-xdpi="125.17"
   inkscape:export-ydpi="125.17"
   xmlns:inkscape="http://www.inkscape.org/namespaces/inkscape"
   xmlns:sodipodi="http://sodipodi.sourceforge.net/DTD/sodipodi-0.dtd"
   xmlns:xlink="http://www.w3.org/1999/xlink"
   xmlns="http://www.w3.org/2000/svg"
   xmlns:svg="http://www.w3.org/2000/svg">
  <sodipodi:namedview
     id="namedview1"
     pagecolor="#ffffff"
     bordercolor="#666666"
     borderopacity="1.0"
     inkscape:showpageshadow="2"
     inkscape:pageopacity="0.0"
     inkscape:pagecheckerboard="0"
     inkscape:deskcolor="#d1d1d1"
     inkscape:document-units="mm"
     inkscape:zoom="1.0696181"
     inkscape:cx="322.54504"
     inkscape:cy="554.87096"
     inkscape:window-width="1902"
     inkscape:window-height="1035"
     inkscape:window-x="6"
     inkscape:window-y="33"
     inkscape:window-maximized="1"
     inkscape:current-layer="layer1" />
  <defs
     id="defs1">
    <linearGradient
       id="linearGradient15"
       inkscape:collect="always">
      <stop
         style="stop-color:#707070;stop-opacity:1;"
         offset="0"
         id="stop16" />
      <stop
         style="stop-color:#707070;stop-opacity:0;"
         offset="1"
         id="stop17" />
    </linearGradient>
    <inkscape:path-effect
       effect="simplify"
       id="path-effect2"
       is_visible="true"
       lpeversion="1.3"
       threshold="277.778"
       steps="1"
       smooth_angles="360"
       helper_size="0"
       simplify_individual_paths="false"
       simplify_just_coalesce="false" />
    <linearGradient
       inkscape:collect="always"
       xlink:href="#linearGradient15"
       id="linearGradient26"
       x1="65.207336"
       y1="111.43938"
       x2="131.555"
       y2="111.43938"
       gradientUnits="userSpaceOnUse" />
  </defs>
  <g
     inkscape:label="Layer 1"
     inkscape:groupmode="layer"
     id="layer1">
    <g
       id="g1">
      <path
         id="text1"
         style="font-style:normal;font-weight:normal;font-size:105.833px;line-height:1.25;font-family:sans-serif;fill:#c906dd;fill-opacity:1;stroke:none;stroke-width:0.578549"
         d="m 75.617362,179.3928 c -1.669397,0 -3.342419,0.18728 -5.283627,0.37529 l -15.45915,9.41587 c 3.231742,-1.30055 6.325008,-1.80031 8.075266,-1.80031 24.771918,0 41.661349,17.31291 76.567239,17.31291 16.88994,0 28.15061,-4.75684 38.56607,-14.84003 l -4.50428,-2.28244 c -5.91147,4.94648 -15.48199,6.65875 -23.36396,6.65875 -23.64593,0 -45.32166,-14.84004 -74.597558,-14.84004 z m -4.871275,0.15891 -0.06597,0.005 -0.180061,0.10965 c 0.08226,-0.0401 0.163809,-0.0744 0.246039,-0.11433 z" />
      <text
         xml:space="preserve"
         style="font-style:normal;font-weight:normal;font-size:144.882px;line-height:1.25;font-family:sans-serif;fill:#c906dd;fill-opacity:1;stroke:none;stroke-width:0.362205"
         x="-190.21555"
         y="-128.13332"
         id="text2"
         transform="scale(-0.98590551,-1.014296)"><tspan
           id="tspan2"
           style="font-style:normal;font-variant:normal;font-weight:normal;font-stretch:normal;font-size:144.882px;font-family:'Linux Libertine';-inkscape-font-specification:'Linux Libertine';fill:#c906dd;fill-opacity:1;stroke-width:0.362205"
           x="-190.21555"
           y="-128.13332"
           sodipodi:role="line">V</tspan></text>
      <path
         id="text1-6"
         style="font-style:normal;font-weight:normal;font-size:105.833px;line-height:1.25;font-family:sans-serif;fill:#c906dd;fill-opacity:1;stroke:none;stroke-width:0.409407"
         d="m 81.797305,82.314602 c -16.981709,0 -31.887859,5.685432 -41.322152,15.776714 -7.547416,8.101454 -12.264606,16.203034 -12.264606,31.268884 0,25.015 19.812182,40.22277 45.284743,42.92325 -10.377711,4.26392 -20.001521,10.5176 -26.228155,16.20283 -1.3208,0.99492 -2.641242,2.13239 -3.395983,3.26943 l 6.981767,2.70036 c 2.075538,-2.27409 4.339063,-4.40594 6.791963,-6.25364 0.274168,-0.14297 0.541883,-0.23861 0.814447,-0.36088 l 10.362095,-7.03439 c -0.016,10e-4 -0.02799,0.003 -0.04332,0.004 0.05188,-0.0282 0.102879,-0.0524 0.154759,-0.0804 l 0.120693,-0.0819 0.04422,-0.004 c 8.756358,-4.72674 17.298558,-7.52321 23.077248,-8.64654 14.151406,-1.98983 25.471956,-7.95884 33.208066,-16.48669 6.79268,-7.67506 10.7555,-15.77705 10.7555,-28.85308 0,-27.573354 -23.58558,-44.344547 -54.341331,-44.344547 z m 0.64445,3.265867 c 21.698845,0 30.173415,15.247161 30.173415,41.683471 0,23.30944 -9.15538,41.29047 -28.02394,41.29047 -20.189365,0 -27.737266,-16.47539 -27.737266,-41.34827 0,-27.00483 10.492943,-41.625671 25.587791,-41.625671 z"
         sodipodi:nodetypes="ccscccccccccccccsccsssss" />
    </g>
  </g>
</svg>
